<svg xmlns="http://www.w3.org/2000/svg" xmlns:xlink="http://www.w3.org/1999/xlink" width="100" height="100" viewBox="0 0 100 100"><rect width="100%" height="100%" fill="#38706f"></rect><g transform="translate(50 50) scale(0.69 0.69) rotate(0) translate(-50 -50)" style="fill:#e2e8f0"><svg fill="#e2e8f0" xmlns="http://www.w3.org/2000/svg" xmlns:xlink="http://www.w3.org/1999/xlink" version="1.1" x="0px" y="0px" viewBox="0 0 100 100" style="enable-background:new 0 0 100 100;" xml:space="preserve"><path d="M91.117,7.014c-0.533-0.515-1.374-0.573-1.969-0.099c-3.817,3.032-7.534,6.121-11.044,9.178l-0.79,0.689  c-2.673,2.336-4.439,3.88-7.259,5.294c-1.102,0.553-2.369,0.917-3.75,1.08c-0.679,0.059-6.824-0.113-8.82-0.215l-1.192-0.055  c-0.93-0.041-2.035-0.089-3.098-0.16c-2.12-0.142-4.27-0.142-6.39,0c-1.063,0.071-2.167,0.12-3.097,0.16l-1.192,0.055  c-1.995,0.102-8.143,0.271-8.805,0.217c-1.396-0.165-2.664-0.528-3.766-1.081c-2.819-1.414-4.585-2.958-7.258-5.294l-0.79-0.689  c-3.511-3.057-7.227-6.146-11.044-9.178c-0.596-0.474-1.438-0.416-1.97,0.1c-0.363,0.15-0.667,0.44-0.823,0.834  C5.89,13.355,4.865,19.127,5.014,25.003c0.122,4.821,1.039,9.568,2.726,14.109c0.032,0.085,0.084,0.154,0.129,0.23  c-0.423,1.462-0.848,3.397-0.842,5.909c0.005,1.893,0.26,3.779,0.742,5.614c-1.242,6.064-1.059,12.335,0.552,18.162  c0.998,3.611,2.668,9.656,8.009,14.631c6.4,5.962,14.396,6.992,19.156,6.992c0.948,0,1.768-0.041,2.42-0.092  c0.025-0.002,0.048-0.01,0.073-0.013c4.396,2.913,9.657,2.878,11.646,2.864l0.383-0.001l0.368,0.001  c0.158,0.001,0.337,0.002,0.534,0.002c2.292,0,7.063-0.186,11.111-2.867c0.026,0.003,0.049,0.012,0.076,0.014  c0.653,0.051,1.472,0.092,2.42,0.092c4.76,0,12.756-1.031,19.156-6.992c5.341-4.976,7.011-11.02,8.01-14.633  c1.61-5.826,1.793-12.096,0.551-18.16c0.482-1.835,0.737-3.721,0.742-5.614c0.004-2.016-0.279-4.015-0.814-5.96  c0.033-0.061,0.076-0.113,0.1-0.179c1.687-4.541,2.604-9.288,2.726-14.109c0.148-5.875-0.876-11.647-3.046-17.154  C91.785,7.454,91.48,7.164,91.117,7.014z M91.987,24.927c-0.104,4.105-0.834,8.151-2.159,12.048  c-0.122,0.131-0.223,0.284-0.28,0.466c-0.498,1.574-2.055,5-4.383,6.7c-0.737,0.538-1.446,0.908-2.016,1.155  c-1.294-0.817-2.486-1.731-3.55-2.723c-0.505-0.469-1.295-0.441-1.767,0.062c-0.471,0.505-0.443,1.296,0.062,1.767  c1.304,1.215,2.779,2.324,4.384,3.294l0.093,0.056c0.2,0.124,0.428,0.187,0.657,0.187c0.144,0,0.288-0.025,0.426-0.075  c0.771-0.279,1.95-0.802,3.185-1.704c1.309-0.956,2.354-2.232,3.16-3.486c0.112,0.851,0.178,1.708,0.176,2.569  c-0.004,1.745-0.246,3.485-0.719,5.172c-0.005,0.019-0.005,0.039-0.01,0.058c-0.013,0.052-0.021,0.105-0.028,0.158  c-0.006,0.048-0.011,0.095-0.013,0.142c-0.001,0.047,0.001,0.094,0.004,0.142c0.003,0.054,0.008,0.107,0.018,0.16  c0.003,0.02,0.002,0.039,0.007,0.059c0.4,1.865,0.637,3.751,0.744,5.638h-5.106c-0.552,0-1,0.448-1,1s0.448,1,1,1h5.163  c0.002,1.658-0.101,3.31-0.326,4.94h-5.291c-0.69,0-1.25,0.56-1.25,1.25s0.56,1.25,1.25,1.25h4.862  c-0.144,0.677-0.306,1.349-0.49,2.014c-0.223,0.807-0.475,1.712-0.784,2.676h-4.824c-0.69,0-1.25,0.56-1.25,1.25  s0.56,1.25,1.25,1.25h3.916c-1.088,2.642-2.729,5.505-5.47,8.059c-6.804,6.338-15.764,6.381-19.298,6.104  c-0.239-0.019-0.465,0.024-0.673,0.106c-0.371-0.061-0.765,0.014-1.098,0.246c-3.663,2.538-8.389,2.504-10.16,2.49l-0.391-0.001  l-0.406,0.001c-1.752,0.012-6.415,0.047-10.062-2.423c-0.318-0.216-0.69-0.287-1.043-0.239c-0.244-0.13-0.526-0.199-0.825-0.18  c-3.539,0.276-12.495,0.233-19.298-6.104c-2.741-2.553-4.382-5.416-5.47-8.059h3.933c0.69,0,1.25-0.56,1.25-1.25  s-0.56-1.25-1.25-1.25h-4.841c-0.309-0.964-0.561-1.87-0.784-2.678c-0.184-0.665-0.346-1.336-0.489-2.013h1.002  c0.69,0,1.25-0.56,1.25-1.25s-0.56-1.25-1.25-1.25h-1.432c-0.213-1.549-0.318-3.116-0.326-4.69h5.181c0.69,0,1.25-0.56,1.25-1.25  s-0.56-1.25-1.25-1.25h-5.107c0.114-1.803,0.346-3.605,0.728-5.388c0.004-0.02,0.003-0.039,0.007-0.059  c0.009-0.053,0.014-0.106,0.018-0.159c0.003-0.048,0.005-0.095,0.004-0.143c-0.001-0.047-0.007-0.094-0.013-0.141  c-0.007-0.054-0.015-0.107-0.028-0.16c-0.005-0.019-0.005-0.038-0.01-0.058c-0.473-1.687-0.715-3.427-0.719-5.172  c-0.002-0.821,0.051-1.561,0.135-2.241c0.13,0.192,0.256,0.384,0.397,0.575c0.245,0.331,0.623,0.506,1.006,0.506  c0.258,0,0.519-0.08,0.743-0.245c0.555-0.411,0.672-1.194,0.261-1.749c-0.703-0.949-1.233-1.93-1.62-2.753  c0.017-0.372-0.101-0.732-0.329-1.014c-0.016-0.086-0.036-0.172-0.067-0.257c-1.571-4.229-2.425-8.65-2.539-13.14  c-0.126-4.977,0.663-9.872,2.326-14.578c2.701,2.169,5.341,4.358,7.886,6.541c2.923,3.835,6.084,10.664,6.636,14.596  c0.108,0.769,0.132,1.541,0.073,2.296c-0.054,0.688,0.459,1.291,1.147,1.345c0.034,0.002,0.067,0.004,0.1,0.004  c0.646,0,1.193-0.497,1.245-1.151c0.074-0.936,0.044-1.892-0.089-2.841c-0.349-2.49-1.601-5.941-3.205-9.223  c1.349,1.048,2.73,1.97,4.469,2.842c1.415,0.709,3.016,1.174,4.76,1.379c0.763,0.092,5.88-0.066,8.258-0.156v5.262  c0,0.69,0.56,1.25,1.25,1.25s1.25-0.56,1.25-1.25V25.87c0.89-0.039,1.903-0.085,2.887-0.152c0.285-0.019,0.573-0.015,0.859-0.029  v4.658c0,0.69,0.56,1.25,1.25,1.25s1.25-0.56,1.25-1.25v-4.717c0.879,0.007,1.758,0.029,2.63,0.088  c0.37,0.025,0.744,0.046,1.116,0.066v5.457c0,0.69,0.56,1.25,1.25,1.25s1.25-0.56,1.25-1.25v-5.339l0.721,0.033  c0.984,0.05,6.057,0.227,8.316,0.227c0.48,0,0.833-0.008,0.993-0.027c1.744-0.205,3.346-0.669,4.76-1.379  c1.558-0.781,2.828-1.599,4.046-2.514c-0.334,0.698-0.66,1.405-0.963,2.122c-0.269,0.636,0.029,1.369,0.665,1.638  c0.159,0.067,0.324,0.099,0.486,0.099c0.487,0,0.95-0.287,1.152-0.764c1.236-2.926,2.768-5.728,4.239-7.802  c2.776-2.396,5.669-4.804,8.638-7.187C91.324,15.055,92.113,19.95,91.987,24.927z"></path><path d="M57.106,83.524c-1.266-0.492-2.514-1.063-3.708-1.699C52.58,81.39,51.779,80.909,51,80.408v-2.412  c0-0.072-0.027-0.136-0.041-0.204c0.283-0.129,0.539-0.317,0.74-0.568c0.036-0.045,0.071-0.092,0.103-0.14  c0.299-0.444,0.582-0.86,0.537-1.383c-0.04-0.47-0.312-0.644-0.221-1.044c0.088-0.392,0.441-0.63,0.631-0.752  c0.761-0.487,1.321-0.2,2.203-0.435c0.96-0.263,1.904-0.92,1.784-1.429c-0.114-0.49-1.163-0.848-2.16-1.152  c-0.999-0.514-8.149-0.514-9.148,0c-0.997,0.304-2.047,0.661-2.16,1.152c-0.12,0.509,0.824,1.167,1.783,1.429  c0.882,0.235,1.442-0.052,2.203,0.435c0.188,0.122,0.543,0.36,0.631,0.752c0.09,0.4-0.181,0.574-0.221,1.044  c-0.045,0.523,0.238,0.938,0.537,1.383c0.032,0.048,0.067,0.095,0.103,0.14c0.201,0.251,0.457,0.439,0.74,0.568  C49.027,77.86,49,77.924,49,77.997v2.411c-0.779,0.501-1.58,0.982-2.399,1.417c-1.193,0.636-2.441,1.208-3.707,1.699  c-0.515,0.2-0.771,0.779-0.57,1.294c0.154,0.396,0.532,0.639,0.932,0.639c0.121,0,0.243-0.022,0.362-0.068  c1.34-0.521,2.66-1.125,3.923-1.798c0.839-0.447,1.659-0.938,2.459-1.449c0.8,0.512,1.621,1.003,2.459,1.449  c1.264,0.672,2.583,1.277,3.924,1.798c0.119,0.046,0.241,0.068,0.362,0.068c0.4,0,0.778-0.243,0.932-0.639  C57.877,84.304,57.622,83.724,57.106,83.524z"></path><path d="M25.979,35.599c-0.654-0.221-1.363,0.126-1.586,0.78c-1.52,4.457-5.688,7.57-7.812,8.917  c-0.569-0.247-1.278-0.617-2.014-1.154c-0.092-0.067-0.182-0.137-0.271-0.208c-0.54-0.432-1.326-0.346-1.757,0.194  c-0.432,0.539-0.345,1.325,0.194,1.757c0.117,0.094,0.237,0.186,0.359,0.275c1.235,0.902,2.413,1.424,3.185,1.704  c0.138,0.05,0.283,0.075,0.426,0.075c0.229,0,0.456-0.063,0.655-0.186l0.089-0.054c2.694-1.627,7.485-5.157,9.312-10.514  C26.981,36.532,26.632,35.821,25.979,35.599z"></path><path d="M74.87,31.486c0.131-0.936,0.439-2.133,0.89-3.464c0.221-0.654-0.129-1.363-0.783-1.585  c-0.652-0.221-1.363,0.129-1.585,0.783c-0.507,1.497-0.843,2.815-0.998,3.918c-0.535,3.812,0.573,7.476,3.293,10.89  c0.247,0.31,0.611,0.471,0.979,0.471c0.273,0,0.548-0.089,0.778-0.272c0.54-0.43,0.629-1.217,0.199-1.756  C75.367,37.615,74.434,34.592,74.87,31.486z"></path><path d="M37.871,52.447c-1.24-0.715-2.661-1.093-4.109-1.093c-2.564,0-5.039,1.158-6.789,3.177c-0.17,0.197-0.275,0.442-0.3,0.702  c-0.301,3.196,1.139,6.395,3.667,8.15c1.347,0.935,2.965,1.429,4.678,1.429c2.456,0,4.902-1.039,6.711-2.849  c0.195-0.195,0.32-0.45,0.355-0.724C42.543,57.699,40.849,54.166,37.871,52.447z M35.019,62.311c-1.201,0-2.326-0.34-3.252-0.982  c-1.695-1.176-2.7-3.286-2.629-5.459c1.25-1.285,2.914-2.015,4.625-2.015c1.01,0,1.999,0.263,2.86,0.759  c1.997,1.152,3.178,3.476,3.025,5.879C38.343,61.653,36.679,62.311,35.019,62.311z"></path><circle cx="34.397" cy="58.083" r="2.477"></circle><path d="M72.983,54.531c-1.75-2.019-4.224-3.177-6.789-3.177c-1.448,0-2.869,0.378-4.109,1.093  c-2.979,1.718-4.672,5.251-4.215,8.791c0.036,0.274,0.161,0.528,0.355,0.724c1.81,1.811,4.256,2.849,6.712,2.849  c1.712,0,3.33-0.494,4.678-1.429c2.528-1.755,3.968-4.954,3.667-8.15C73.258,54.973,73.153,54.728,72.983,54.531z M68.19,61.329  c-0.927,0.643-2.052,0.982-3.252,0.982c-1.661,0-3.325-0.658-4.629-1.82c-0.152-2.403,1.028-4.726,3.025-5.878  c0.861-0.496,1.85-0.759,2.86-0.759c1.71,0,3.375,0.73,4.625,2.015C70.89,58.042,69.885,60.152,68.19,61.329z"></path><circle cx="65.559" cy="58.083" r="2.477"></circle><path d="M49.114,39.068c0.69,0,1.25-0.56,1.25-1.25v-4.219c0-0.69-0.56-1.25-1.25-1.25s-1.25,0.56-1.25,1.25v4.219  C47.864,38.508,48.424,39.068,49.114,39.068z"></path><path d="M21.03,63.713h-6.345c-0.69,0-1.25,0.56-1.25,1.25s0.56,1.25,1.25,1.25h6.345c0.69,0,1.25-0.56,1.25-1.25  S21.72,63.713,21.03,63.713z"></path><path d="M78.987,66.213h1.943c0.69,0,1.25-0.56,1.25-1.25s-0.56-1.25-1.25-1.25h-1.943c-0.69,0-1.25,0.56-1.25,1.25  S78.297,66.213,78.987,66.213z"></path></svg></g></svg>